<svg xmlns="http://www.w3.org/2000/svg" width="38.893" height="38.959"><path d="M30.754 24.134a4.364 4.364 0 0 0-1.219-.907 3.517 3.517 0 0 0-1.56-.368 3.7 3.7 0 0 0-2.08.66 4.901 4.901 0 0 0-.731.606l-2.598 2.59a46.104 46.104 0 0 0-.633-.328c-.296-.148-.575-.288-.814-.436-2.433-1.546-4.644-3.56-6.765-6.167a24.03 24.03 0 0 1-.883-1.185 14.424 14.424 0 0 1-1.337-2.318 32.83 32.83 0 0 0 .976-.934 130.463 130.463 0 0 0 .932-.94 58.376 58.376 0 0 0 .345-.35 58.376 58.376 0 0 1 .345-.35c1.726-1.726 1.726-3.963 0-5.69l-2.244-2.244a33.918 33.918 0 0 1-.765-.781 70.518 70.518 0 0 0-.499-.512 31.666 31.666 0 0 0-1.046-1.018 4.337 4.337 0 0 0-1.278-.89 3.599 3.599 0 0 0-1.476-.319 3.818 3.818 0 0 0-2.151.686 4.862 4.862 0 0 0-.644.523 5.647 5.647 0 0 0-.002.002 2.116 2.116 0 0 0-.002.002.404.404 0 0 0-.01.01 8.077 8.077 0 0 0-.002.003l-2.795 2.82a6.017 6.017 0 0 0-1.784 3.823c-.197 2.402.51 4.638 1.052 6.102A31.483 31.483 0 0 0 3.77 21.73c1.003 1.644 2.193 3.287 3.605 4.984a38.687 38.687 0 0 0 12.881 10.09 42.68 42.68 0 0 0 .696.322c1.795.812 4.052 1.656 6.538 1.815a2528.711 2528.711 0 0 0 .01 0c.163.008.332.016.488.017a4.995 4.995 0 0 0 .02 0 6.526 6.526 0 0 0 2.726-.56 6.237 6.237 0 0 0 2.018-1.48c.008-.016.024-.024.032-.04.428-.519.921-.987 1.439-1.489a40.996 40.996 0 0 0 .531-.515 26.898 26.898 0 0 0 .538-.545c.814-.847 1.241-1.834 1.241-2.846a3.74 3.74 0 0 0-.703-2.155 4.812 4.812 0 0 0-.563-.665l-4.513-4.53Zm1.957 9.645a58.624 58.624 0 0 0-.017.016 45.507 45.507 0 0 0-.326.314 19.19 19.19 0 0 0-1.26 1.33 3.877 3.877 0 0 1-2.512 1.277 5.247 5.247 0 0 1-.58.031 11.537 11.537 0 0 1-.187-.001 3.701 3.701 0 0 1-.19-.007 14.306 14.306 0 0 1-3.816-.83 25.827 25.827 0 0 1-2.5-1.048 43.591 43.591 0 0 1-.097-.046 36.518 36.518 0 0 1-12.133-9.506c-1.473-1.775-2.689-3.48-3.691-5.184a29.022 29.022 0 0 1-2.228-4.674 19.23 19.23 0 0 1-.508-1.542c-.3-1.07-.44-2.018-.44-2.918a8.413 8.413 0 0 1 .027-.688 3.772 3.772 0 0 1 1.119-2.426 4.597 4.597 0 0 1 .016-.016L6.19 5.057c.302-.283.618-.47.934-.545a1.353 1.353 0 0 1 .316-.039c.5 0 .908.292 1.172.549a2.723 2.723 0 0 1 .028.027.968.968 0 0 0 .024.025 30.444 30.444 0 0 1 .74.717 64.85 64.85 0 0 1 .74.755l.772.788a37.272 37.272 0 0 1 .009.01l2.244 2.244a3.134 3.134 0 0 1 .323.374c.53.732.423 1.43-.323 2.175a119.195 119.195 0 0 0-.353.357 21.798 21.798 0 0 1-.354.35A42.763 42.763 0 0 1 10.4 14.85a.178.178 0 0 1-.01.01c-.013.01-.023.017-.03.029a.048.048 0 0 0-.001.003 2.21 2.21 0 0 0-.25.294c-.42.6-.305 1.169-.178 1.572a10.229 10.229 0 0 0 .005.015l.008.022a5.446 5.446 0 0 1 .012.037 14.02 14.02 0 0 0 .473 1.027c.538 1.053 1.238 2.107 2.182 3.306l.008.009a33.85 33.85 0 0 0 3.682 3.898 27.19 27.19 0 0 0 3.618 2.745c.33.21.668.38.99.54a760.196 760.196 0 0 0 .021.011 27.19 27.19 0 0 1 .37.187c.123.064.24.128.351.193a4.527 4.527 0 0 1 .093.056.582.582 0 0 1 .047.027c.018.011.035.022.052.03a2.134 2.134 0 0 0 .292.122c.085.027.17.048.253.062a1.629 1.629 0 0 0 .269.022c.659 0 1.08-.399 1.234-.552a9.118 9.118 0 0 0 .015-.015l2.812-2.813c.156-.156.364-.33.608-.453a1.403 1.403 0 0 1 .633-.163c.51 0 .929.32 1.184.6a2.76 2.76 0 0 0 .004.004.592.592 0 0 0 .01.01 19.047 19.047 0 0 0 .002.002l4.53 4.531a2.772 2.772 0 0 1 .335.396c.44.64.396 1.294-.129 1.952a3.233 3.233 0 0 1-.198.226c-.316.34-.64.648-.986.987Zm6.165-16.594c-.732-4.292-2.754-8.197-5.861-11.305A20.86 20.86 0 0 0 21.71.017a1.106 1.106 0 0 0-1.274.904 1.146 1.146 0 0 0-.015.184 1.115 1.115 0 0 0 .928 1.1c3.83.649 7.324 2.466 10.103 5.237 2.778 2.779 4.587 6.274 5.236 10.105a1.103 1.103 0 0 0 1.093.921c.065 0 .122-.008.186-.016a4.88 4.88 0 0 1 .004 0 1.09 1.09 0 0 0 .904-1.267ZM21.02 9.267a10.426 10.426 0 0 1 5.672 2.944 10.483 10.483 0 0 1 2.943 5.673 1.103 1.103 0 0 0 1.093.921c.066 0 .124-.008.19-.016a1.108 1.108 0 0 0 .927-1.1 1.147 1.147 0 0 0-.015-.183 12.684 12.684 0 0 0-3.56-6.866 12.678 12.678 0 0 0-6.864-3.56 1.145 1.145 0 0 0-.184-.015 1.114 1.114 0 0 0-1.098.92c-.107.6.288 1.184.896 1.282Zm12.673 23.526c-.005.001-.004.005 0 0m-4.551-7.122.002.002m4.546 7.12a.005.005 0 0 1 .001 0m.002.002a.01.01 0 0 1-.001 0" fill="rgba(255, 255, 255, 1)" fill-rule="evenodd" data-name="Telephone"/></svg>